<?xml version="1.0" encoding="UTF-8" standalone="no"?>
<!-- Created with Inkscape (http://www.inkscape.org/) -->

<svg
   version="1.1"
   id="svg2"
   width="2800"
   height="2800"
   viewBox="0 0 2800 2800"
   sodipodi:docname="vecteezy_retro-styled-guitar-shop-logo-template-music-icon-for-audio_10629938.eps"
   xmlns:inkscape="http://www.inkscape.org/namespaces/inkscape"
   xmlns:sodipodi="http://sodipodi.sourceforge.net/DTD/sodipodi-0.dtd"
   xmlns="http://www.w3.org/2000/svg"
   xmlns:svg="http://www.w3.org/2000/svg">
  <defs
     id="defs6" />
  <sodipodi:namedview
     id="namedview4"
     pagecolor="#ffffff"
     bordercolor="#000000"
     borderopacity="0.25"
     inkscape:showpageshadow="2"
     inkscape:pageopacity="0.0"
     inkscape:pagecheckerboard="0"
     inkscape:deskcolor="#d1d1d1" />
  <g
     id="g8"
     inkscape:groupmode="layer"
     inkscape:label="ink_ext_XXXXXX"
     transform="matrix(1.3333333,0,0,-1.3333333,0,2800)">
    <g
       id="g10"
       transform="scale(0.1)">
      <path
         d="M -9.58984,21009.6 H 21009.6 V -9.59766 H -9.58984 V 21009.6"
         style="fill:#ffffff;fill-opacity:1;fill-rule:evenodd;stroke:none"
         id="path12" />
      <path
         d="m 8173.96,15523.3 c -717.4,-518.5 -938.1,-1400.5 -650.47,-2223.1 398.8,-1140.6 967.55,-2223.3 1657.59,-3214.1 74.81,-107.4 155.92,-213 236.78,-315.8 240.58,-306.1 643.24,-797.8 1065.44,-810.2 382.3,-11.1 751.5,384.3 975.3,656.2 124,150.5 249.1,309.7 360.6,469.8 690,990.8 1258.8,2073.5 1657.6,3214.1 287.6,822.6 66.9,1704.6 -650.5,2223.1 -1037.3,749.8 -3615.02,749.8 -4652.34,0 z m 149.72,-207.1 c 946.93,684.5 3406.02,684.5 4352.92,0 626,-452.4 809,-1216.7 559,-1931.7 -391.3,-1119.1 -949,-2180.2 -1626.1,-3152.4 -108.8,-156.3 -227.1,-306.4 -348.1,-453.4 -162.4,-197.2 -496.3,-571.2 -770.6,-563.1 -312.1,9.1 -690.99,482.2 -872.06,712.6 -78.23,99.5 -155.6,200 -227.95,303.9 -677.08,972.2 -1234.79,2033.3 -1626.1,3152.4 -250.02,715 -67.01,1479.3 558.99,1931.7"
         style="fill:#01202f;fill-opacity:1;fill-rule:evenodd;stroke:none"
         id="path14" />
      <path
         d="m 9871.08,10930.6 c 419.92,1.5 838.12,1.5 1258.12,0 -21.8,573.2 533.2,377.7 424.4,1086.7 -12.3,80.5 -22.5,157.6 -30.7,231.8 184.9,-23.4 209.9,-89.9 236.4,-146.9 54.2,-117.1 251.1,-128.7 284.4,-25.3 11.5,35.7 8.6,81.1 6.9,124.4 -2,47.1 1.1,91.1 9.8,137.5 8,43.7 18.2,90.1 11.7,128.1 -18.3,106.3 -215.3,116.1 -285.9,5.9 -35.6,-55.4 -71.2,-121 -273.8,-120.2 -31,343.7 -17.9,625.6 22.6,901.4 275.1,-10.1 303.7,-88.5 334.2,-154.3 54.2,-117.1 251.2,-128.8 284.5,-25.4 11.6,35.8 8.6,81.2 6.9,124.5 -1.9,47.1 1,91 9.7,137.5 8.2,43.7 18.3,90.1 11.8,128.1 -18.4,106.2 -215.2,116 -286,5.8 -39.3,-61.4 -78.7,-135.2 -345.4,-117.4 47.5,279 121.3,558.6 204.5,896.8 240.9,-15.5 268.3,-89.8 297.4,-152.5 54.2,-117.1 251.1,-128.8 284.5,-25.2 11.4,35.6 8.6,81 6.8,124.3 -1.9,47 1.1,91.1 9.8,137.5 8.1,43.7 18.2,90.1 11.7,128.1 -18.3,106.3 -215.2,116.1 -285.9,5.8 -37,-57.7 -74.1,-126.4 -300.3,-119.6 24.8,102 50.1,209.6 75.8,324.1 24.8,111.3 105.5,275.4 -28.2,335.9 -177.8,80.4 -395.6,77.6 -539,208.2 -247.3,225.6 -282.8,324.4 -542.4,355.4 -147.7,17.6 -367.2,18.4 -513.8,-3 -242.55,-35.3 -285.48,-139.4 -519.19,-352.4 -143.22,-130.6 -361.09,-127.8 -538.95,-208.2 -133.73,-60.5 -52.94,-224.6 -28.14,-335.9 25.67,-114.5 51.06,-222.1 75.79,-324.1 -226.14,-6.8 -263.24,62 -300.28,119.6 -70.71,110.3 -267.63,100.5 -285.96,-5.8 -6.47,-37.9 3.57,-84.4 11.65,-128.1 8.84,-46.4 11.79,-90.5 9.94,-137.5 -1.82,-43.3 -4.66,-88.7 6.78,-124.3 33.41,-103.6 230.29,-91.9 284.48,25.2 29.13,62.7 56.51,137 297.38,152.5 83.19,-338.2 157.03,-617.8 204.51,-896.8 -266.7,-17.8 -306.04,56.1 -345.44,117.4 -70.71,110.2 -267.63,100.4 -285.93,-5.8 -6.5,-38 3.54,-84.4 11.72,-128.1 8.74,-46.4 11.69,-90.5 9.81,-137.5 -1.78,-43.4 -4.66,-88.7 6.88,-124.5 33.34,-103.4 230.19,-91.7 284.39,25.4 30.56,65.8 59.2,144.2 334.23,154.3 40.46,-275.8 53.59,-557.7 22.62,-901.4 -202.57,-0.8 -238.16,64.8 -273.73,120.1 -70.65,110.3 -267.67,100.5 -285.93,-5.8 -6.47,-37.9 3.53,-84.4 11.68,-128.1 8.78,-46.3 11.76,-90.5 9.88,-137.5 -1.82,-43.3 -4.7,-88.7 6.88,-124.4 33.3,-103.4 230.21,-91.8 284.38,25.3 26.45,57 51.5,123.5 236.38,146.9 -8.25,-74.2 -18.33,-151.3 -30.76,-231.8 -108.72,-709 446.27,-513.5 424.41,-1086.7 z m 56.37,3562.3 c 86.65,0 156.95,-70.3 156.95,-156.9 0,-86.7 -70.3,-157 -156.95,-157 -86.66,0 -156.93,70.3 -156.93,157 0,86.6 70.27,156.9 156.93,156.9 z m 78.95,-991.9 c 86.6,0 156.9,-70.3 156.9,-157 0,-86.6 -70.3,-156.9 -156.9,-156.9 -86.66,0 -156.94,70.3 -156.94,156.9 0,86.7 70.28,157 156.94,157 z m 74.4,-1011.2 c 86.7,0 157,-70.2 157,-156.9 0,-86.6 -70.3,-156.9 -157,-156.9 -86.61,0 -156.88,70.3 -156.88,156.9 0,86.7 70.27,156.9 156.88,156.9 z m 977,2003.1 c -86.6,0 -156.9,-70.3 -156.9,-156.9 0,-86.7 70.3,-157 156.9,-157 86.7,0 156.9,70.3 156.9,157 0,86.6 -70.2,156.9 -156.9,156.9 z m -78.9,-991.9 c -86.7,0 -156.9,-70.3 -156.9,-157 0,-86.6 70.2,-156.9 156.9,-156.9 86.6,0 156.9,70.3 156.9,156.9 0,86.7 -70.3,157 -156.9,157 z m -74.5,-1011.2 c -86.6,0 -156.9,-70.2 -156.9,-156.9 0,-86.6 70.3,-156.9 156.9,-156.9 86.7,0 156.9,70.3 156.9,156.9 0,86.7 -70.2,156.9 -156.9,156.9 z m -770.3,-1308.6 c 244,0.5 488,0.5 732.1,0 42.5,151.5 135.3,267.8 263.4,382.5 165.6,148.2 168.2,219.1 137.4,419.9 -12.8,84 -3.6,179.8 -0.7,264.9 5.9,170.9 16,341.7 28.6,512.4 36.4,497.2 93.1,993.8 180.7,1486.2 28.1,158.3 59.6,316.2 95.8,473.2 7.5,32.8 18.5,65.1 27.7,97.8 -199.6,60.8 -352.6,71.4 -520.9,224.8 -76,69.3 -192.1,207.4 -277.2,255.5 -26.3,15 -64.4,20.6 -95.1,24.3 -130.6,15.6 -296.4,17.1 -426.4,-1.8 -28.4,-4.2 -59.2,-10.1 -83.5,-24.3 -87.1,-50.7 -196.5,-183 -274,-253.7 -59.04,-53.8 -128.01,-96.5 -204.41,-129.8 -102.93,-44.9 -211.23,-62.5 -316.46,-94.1 9.39,-33.4 20.59,-66.5 28.06,-100 l 1.58,-7.6 0.78,-4.8 c 62.09,-384.4 140.66,-766.7 204.11,-1150.9 81.62,-494.9 173.65,-1075.8 97.54,-1572.1 -30.8,-200.8 -28.22,-271.8 137.41,-419.9 128.14,-114.7 220.99,-231 263.49,-382.5 z m 60,121.2 c -55.7,123.2 -146.5,226.8 -252.02,321.2 -33.79,30.3 -83.19,69.4 -101.7,108 -30.15,62.8 -18.94,173.1 -8.56,240.7 77.33,504.3 -14.8,1092.9 -97.72,1595.6 -63.05,382.1 -139.93,762.4 -203.07,1144.6 l -7.61,46.1 51.22,13.9 c 64.45,17.6 127.12,37.3 187.65,63.6 86.59,37.8 164.85,86.5 231.69,147.4 77.92,71.1 164.92,180.7 251.42,237.8 l 9,5.9 10.7,2.9 c 10.2,2.7 20.5,4.2 30.9,5.8 120.1,17.4 275.7,15.9 396.3,1.4 13.6,-1.6 27.4,-3.3 40.6,-6.6 l 11.9,-2.9 9.8,-6.6 c 88.1,-59.6 172.2,-165.3 251.6,-237.7 124.7,-113.6 250.9,-163.2 419,-210.1 l 53.4,-15 -10.8,-47.8 c -33.9,-149.5 -63.7,-299.7 -90.5,-450.4 -88,-495 -145,-994.1 -181.7,-1493.8 -12.6,-171.6 -22.8,-343.5 -28.7,-515.4 -3.1,-88.9 -11.9,-190.9 1.5,-278.7 10.4,-67.5 21.6,-177.9 -8.5,-240.7 -18.6,-38.6 -68,-77.7 -101.7,-108 -105.5,-94.4 -196.3,-198 -252.1,-321.2 l -15.7,-34.8 h -43.3 c -164.6,0.2 -329.3,0.2 -494,0 h -43.2 l -15.8,34.8"
         style="fill:#01202f;fill-opacity:1;fill-rule:evenodd;stroke:none"
         id="path16" />
      <path
         d="m 9884.28,10816.8 h 1237.42 c 0,-196.4 0,-392.7 0,-589 -491,-763.4 -810.6,-707 -1237.42,-18.2 v 607.2"
         style="fill:#01202f;fill-opacity:1;fill-rule:evenodd;stroke:none"
         id="path18" />
      <path
         d="m 7547.71,7561.1 -6.62,30.9 -4.41,13.3 -15.47,8.8 -33.13,6.6 -17.68,2.2 -35.34,-2.2 -90.57,-11 h -35.34 l -176.72,11 -143.58,-6.6 h -101.61 l -37.56,-2.2 -55.23,-6.6 -26.5,-4.4 -11.05,-11.1 -6.63,-24.3 v -46.4 l 4.43,-33.1 4.41,-66.3 -2.21,-55.2 2.21,-35.4 2.21,-17.6 4.42,-26.5 8.84,-11.1 13.25,-4.4 75.11,-13.3 35.34,-2.2 h 50.81 l 35.34,2.2 50.8,6.7 35.35,2.2 h 53.01 l 24.3,-4.4 8.84,-13.3 v -37.5 l 4.41,-66.3 v -33.1 l -2.2,-19.9 v -24.3 l -6.63,-13.3 -22.09,-15.4 -33.13,-15.5 -35.34,-13.3 -119.29,-28.7 -33.13,-6.6 -35.35,-4.4 h -35.35 l -37.55,2.2 -37.54,4.4 -66.27,15.5 -33.14,13.2 -44.18,24.3 -28.72,22.1 -39.77,37.6 -22.08,26.5 -26.51,39.7 -15.46,31 -22.09,53 -11.04,35.3 -11.05,50.8 -6.63,35.4 -4.41,53 v 37.5 l 2.2,37.6 6.63,35.3 13.26,66.3 8.83,33.1 11.05,35.4 13.25,33.1 17.67,30.9 19.88,28.8 22.09,28.7 24.3,24.3 28.72,22.1 28.71,19.8 66.27,31 35.35,8.8 57.43,4.4 35.34,2.2 h 15.46 l 103.83,-6.6 37.55,-6.6 37.56,-8.9 35.34,-13.2 35.34,-15.5 30.93,-17.6 28.71,-17.7 28.72,-19.9 24.3,-15.5 17.67,2.2 13.26,8.9 17.66,13.2 24.31,17.7 26.5,22.1 39.77,35.3 61.84,61.9 22.09,24.3 19.89,28.7 13.25,19.9 6.63,15.5 v 15.4 l -13.25,15.5 -13.26,11 -24.3,17.7 -11.05,11 -24.29,17.7 -24.3,15.5 -11.04,6.6 -28.73,19.9 -33.13,19.9 -79.52,39.7 -33.14,11.1 -48.59,15.4 -33.14,8.9 -48.6,8.8 -30.92,6.6 -50.81,6.7 -33.13,2.2 -48.6,4.4 -35.35,-2.2 -50.8,-4.4 -33.13,-4.5 -33.14,-6.6 -64.06,-8.8 -81.73,-13.3 -35.35,-8.8 -37.55,-11 -37.55,-15.5 -33.13,-19.9 -72.9,-42 -26.51,-17.6 -26.51,-19.9 -28.71,-22.1 -57.44,-48.6 -26.51,-24.3 -24.29,-26.5 -24.3,-28.7 -19.88,-26.5 -28.72,-39.8 -15.46,-30.9 -15.46,-37.6 -15.47,-35.3 -11.05,-33.2 -11.04,-35.3 -11.05,-37.6 -11.04,-35.3 -8.84,-37.5 -6.62,-37.6 -4.42,-17.7 -6.62,-99.4 v -33.1 l 2.2,-33.1 4.42,-35.4 8.83,-48.6 4.43,-35.3 6.62,-37.6 6.63,-35.3 11.05,-37.6 11.04,-35.3 15.46,-33.2 15.47,-35.3 55.22,-99.4 19.88,-30.9 24.3,-33.2 22.08,-26.5 35.35,-35.3 24.3,-22.1 26.5,-19.9 26.52,-22.1 28.71,-19.9 26.51,-19.8 44.18,-24.3 28.71,-15.5 44.18,-15.5 33.14,-11 33.13,-8.8 77.32,-22.1 33.13,-8.9 35.34,-6.6 35.36,-4.4 50.8,-4.4 68.47,-4.5 33.15,2.3 88.35,11 33.13,6.6 30.93,4.4 50.81,6.7 33.13,6.6 35.35,6.6 33.13,8.9 50.81,15.4 30.92,11.1 33.13,13.2 44.18,22.1 28.73,17.7 15.45,8.8 28.72,19.9 13.26,13.3 26.51,24.3 37.55,37.5 19.88,28.7 17.67,28.7 13.26,22.1 2.21,24.3 v 130.4 l 4.41,92.7 v 207.7 l 8.84,143.6 -2.21,37.5 -2.22,17.7"
         style="fill:#01202f;fill-opacity:1;fill-rule:nonzero;stroke:none"
         id="path20" />
      <path
         d="m 9290.61,7514.7 8.83,137 v 35.3 l 4.42,134.7 v 35.4 l -6.63,136.9 v 35.4 l 2.21,50.8 v 33.1 l -2.21,66.3 -2.21,26.5 -17.68,15.5 -28.71,6.6 -33.13,2.2 h -35.34 l -88.36,-6.6 h -35.34 l -112.67,8.8 h -46.39 l -28.71,-6.6 -19.88,-17.7 -8.84,-30.9 v -55.2 l 6.63,-92.8 2.21,-35.4 4.41,-136.9 v -35.4 l -4.41,-134.7 v -35.3 l -6.63,-137 v -35.3 l 8.84,-134.8 -2.21,-35.3 -8.84,-66.3 -6.63,-35.3 -11.04,-35.4 -15.46,-33.1 -24.3,-46.4 -22.09,-26.5 -35.34,-30.9 -28.72,-17.7 -41.98,-19.9 -33.12,-8.8 -57.44,-11.1 h -35.34 l -57.44,4.4 -33.13,8.9 -48.6,17.6 -28.71,17.7 -35.35,37.6 -22.09,26.5 -22.09,50.8 -13.26,33.1 -13.25,48.6 -6.62,35.4 -4.43,55.2 -2.2,35.3 2.2,134.8 v 35.3 l 6.64,134.8 v 35.3 l 2.2,134.8 v 35.3 l -6.63,134.7 v 35.4 l 4.43,86.1 v 33.2 l -2.21,30.9 -6.63,28.7 -17.68,17.7 -28.71,6.6 -50.81,2.2 -33.13,2.2 -72.89,-2.2 h -35.36 l -83.93,6.7 -72.9,-4.5 -28.71,-6.6 -15.47,-19.9 -6.62,-35.3 -2.21,-37.6 v -37.5 l 4.41,-70.7 V 7824 l -6.63,-134.8 v -35.3 l 4.43,-134.8 v -35.3 l -6.63,-134.8 2.2,-35.3 4.43,-75.1 4.41,-37.6 6.63,-37.5 8.84,-48.6 8.83,-33.2 8.84,-30.9 13.25,-33.1 15.47,-35.4 17.66,-33.1 19.89,-30.9 35.34,-57.5 19.88,-26.5 28.72,-37.5 24.3,-24.3 57.43,-48.6 33.13,-22.1 33.14,-19.9 48.6,-22.1 35.34,-15.4 17.67,-6.7 35.34,-11 19.88,-2.2 35.35,-6.6 121.49,-13.3 33.14,-2.2 50.81,-4.4 h 101.61 l 68.47,4.4 33.14,6.6 50.81,8.9 33.13,8.8 48.6,17.7 33.13,11 46.39,22.1 28.72,15.5 44.18,26.5 28.72,19.9 44.18,35.3 28.71,24.3 26.51,28.7 22.09,28.7 28.72,44.2 15.46,30.9 19.89,46.4 11.03,30.9 17.68,46.4 8.84,33.2 8.82,50.8 6.63,35.3 8.84,53 4.42,33.2 2.21,50.8 2.21,33.1 -4.42,70.7 -6.62,99.4"
         style="fill:#01202f;fill-opacity:1;fill-rule:nonzero;stroke:none"
         id="path22" />
      <path
         d="M 10041.7,7103.8 V 7296 l 4.4,119.3 v 35.3 l -2.2,119.3 v 35.4 l 2.2,121.5 v 35.3 l -2.2,119.3 v 216.5 l -2.2,35.3 -4.5,57.4 -2.2,24.4 -4.4,13.2 -24.3,4.4 h -136.94 l -101.62,-4.4 h -35.34 l -53.02,2.2 -33.13,-2.2 h -17.68 l -22.09,-2.2 -13.25,-8.8 -6.63,-24.3 4.43,-121.5 v -190 l -2.21,-119.3 v -35.3 l 2.21,-121.5 v -190 l 2.2,-119.3 v -35.3 l 6.63,-121.5 -2.2,-35.4 -6.63,-119.3 -2.21,-35.3 6.62,-119.3 v -33.1 l 2.22,-33.2 v -35.3 l 4.41,-55.2 V 6651 l 6.63,-6.6 13.25,-4.5 110.45,-8.8 h 136.96 l 112.65,-2.2 30.89,2.2 17.7,4.4 6.6,13.3 v 24.3 l 2.2,121.5 v 35.3 l 8.9,119.3 v 35.3 l -6.6,119.3"
         style="fill:#01202f;fill-opacity:1;fill-rule:nonzero;stroke:none"
         id="path24" />
      <path
         d="m 11654.2,8128.8 -2.2,33.1 v 15.5 l -4.4,26.5 -11.1,15.5 -15.4,8.8 -26.5,4.4 -17.7,2.2 -37.6,2.2 -72.9,-4.4 H 11303 l -165.7,-2.2 h -35.3 l -128.2,2.2 -163.4,-11 h -35.4 l -130.3,11 h -35.3 l -128.2,-8.8 h -35.3 l -81.7,6.6 h -50.8 l -22.1,-4.4 -13.3,-6.6 -8.8,-15.5 -6.7,-28.7 -2.2,-35.4 6.7,-83.9 v -33.1 l -4.5,-66.3 2.3,-35.3 v -15.5 l 4.4,-22.1 8.8,-13.3 13.3,-8.8 24.3,-4.4 17.6,-2.2 h 33.2 l 50.8,2.2 37.5,2.2 37.6,-2.2 59.6,-4.4 h 39.8 l 70.7,4.4 h 33.1 l 22.1,-4.4 6.6,-17.7 v -30.9 l 4.5,-130.4 v -167.8 l 2.2,-35.4 8.8,-132.5 v -35.4 l -2.2,-130.3 V 7137 l -2.2,-132.6 v -165.7 l -2.2,-35.3 -6.7,-92.8 v -37.5 l 4.5,-24.3 13.2,-6.6 26.5,-2.3 99.4,-6.6 h 35.4 l 99.4,6.6 37.5,-2.2 55.2,-6.6 42,-2.2 28.7,4.4 11.1,11.1 6.6,26.5 -2.2,35.3 -11,99.4 -2.3,33.1 4.5,130.4 v 203.2 l -4.5,130.3 2.3,35.4 8.8,132.5 2.2,35.4 -8.8,132.5 v 35.3 l 8.8,130.4 2.2,28.7 8.8,13.2 22.1,6.7 15.5,2.2 h 33.1 l 55.3,-4.4 h 35.3 l 101.6,6.6 35.4,-2.2 66.2,-6.6 h 35.4 l 26.5,4.4 13.2,11 6.7,15.5 4.4,26.5 2.2,17.7 2.2,35.3 -2.2,66.3 2.2,33.1 4.4,70.7"
         style="fill:#01202f;fill-opacity:1;fill-rule:nonzero;stroke:none"
         id="path26" />
      <path
         d="m 13251.3,6812.2 -59.6,139.2 -15.5,30.9 -53,103.9 -68.5,136.9 -13.3,30.9 -44.1,110.5 -13.3,30.9 -48.6,108.3 -13.2,30.9 -48.6,106 -13.3,30.9 -39.8,112.7 -13.2,30.9 -48.6,108.3 -13.3,30.9 -55.2,103.8 -13.2,33.1 -31,86.2 -11,28.7 -24.3,17.7 -37.6,6.6 -101.6,2.2 h -172.3 l -101.6,-4.4 -33.1,-6.6 -22.1,-13.3 -11.1,-24.3 -39.7,-90.5 -13.3,-33.2 -41.9,-101.6 -15.5,-35.3 -48.6,-99.4 -15.5,-35.4 -61.8,-132.5 -79.5,-181.2 -13.3,-30.9 -59.6,-123.7 -13.3,-33.1 -50.8,-119.3 -13.2,-33.1 -57.5,-123.7 -13.2,-31 -55.3,-123.7 -13.2,-33.1 -30.9,-68.5 -13.3,-35.3 -4.4,-17.7 -2.2,-28.7 17.7,-24.3 26.5,-13.3 28.7,2.2 136.9,8.9 h 35.4 l 128.1,-6.7 h 35.3 l 33.2,11.1 24.3,28.7 13.2,35.3 50.8,150.3 13.3,26.5 17.7,11 28.7,4.4 h 101.6 l 33.1,2.2 h 33.2 l 132.5,-2.2 165.7,-4.4 h 35.3 l 132.6,-8.8 26.5,-2.2 19.8,-4.4 15.5,-22.1 68.5,-185.6 11,-24.3 13.3,-15.5 28.7,-11 137,8.8 h 99.4 l 33.1,-2.2 50.8,-4.4 h 30.9 l 28.7,4.4 24.4,11.1 15.4,24.3 -6.6,30.9 z m -700.2,490.4 -17.7,-17.6 -28.7,-8.9 -103.9,6.7 h -139.1 l -30.9,4.4 -24.3,11 -6.7,26.5 6.7,33.2 57.4,148 13.2,33.1 59.7,150.2 22.1,22.1 24.3,6.6 28.7,-6.6 22.1,-15.5 11,-28.7 44.2,-130.3 11.1,-33.1 48.5,-150.3 8.9,-28.7 -6.6,-22.1"
         style="fill:#01202f;fill-opacity:1;fill-rule:nonzero;stroke:none"
         id="path28" />
      <path
         d="m 15020.7,6666.5 -11.1,24.3 -19.8,24.2 -68.5,79.6 -22.1,26.5 -79.5,110.4 -22.1,26.5 -79.5,108.3 -19.9,26.5 -79.5,112.6 -8.9,17.7 17.7,6.6 28.7,6.7 28.7,15.4 26.5,15.5 44.2,24.3 24.3,19.9 35.4,35.3 19.8,24.3 19.9,26.5 19.9,28.7 19.9,33.2 15.4,33.1 13.3,33.1 8.8,35.4 6.7,37.5 4.4,37.6 2.2,35.3 v 35.4 l -4.4,48.6 -2.2,35.3 -6.7,35.4 -11,35.3 -15.5,33.1 -15.4,31 -26.5,41.9 -19.9,28.8 -31,44.1 -22,26.5 -22.1,22.1 -24.3,19.9 -42,28.7 -28.7,17.7 -33.1,15.5 -35.4,13.2 -33.1,13.3 -33.2,11 -46.4,13.3 -33.1,6.6 -37.5,2.2 h -84 l -145.8,8.8 h -35.3 l -150.2,-8.8 -262.9,8.8 -99.4,4.5 -33.1,-2.2 -17.7,-2.3 -26.5,-6.6 -13.3,-17.6 -6.6,-28.8 -2.2,-13.2 -2.2,-33.2 4.4,-72.9 v -35.3 l 2.2,-119.3 V 7877 l -4.4,-117.1 v -35.3 l -6.6,-119.3 v -35.4 l 6.6,-119.3 v -35.3 l -6.6,-119.3 v -35.3 l 2.2,-117.1 2.2,-35.4 6.6,-119.2 v -35.4 l -8.8,-119.3 -2.2,-35.3 -4.4,-57.4 2.2,-33.2 2.2,-30.9 4.4,-22.1 13.2,-8.8 26.5,-4.4 101.7,-6.7 h 35.3 l 101.6,6.7 106,-6.7 h 35.4 l 24.3,6.7 11,11 4.5,26.5 2.2,35.3 v 35.4 l -2.2,53 -2.3,35.3 -8.8,123.8 -2.2,35.3 4.4,121.5 6.6,28.7 17.7,13.3 28.7,2.2 70.7,-4.4 26.5,-2.3 13.3,-6.6 15.5,-17.7 70.6,-94.9 19.9,-26.5 61.9,-101.7 19.8,-26.5 70.7,-95 19.9,-26.5 70.7,-99.4 17.7,-17.6 19.9,-8.9 h 28.7 l 99.4,4.4 h 35.3 l 121.5,-2.2 h 154.6 l 28.8,8.9 z m -678.2,830.5 -145.8,-8.8 h -35.3 l -114.9,8.8 -26.5,4.4 -15.4,6.7 -4.5,13.2 -2.2,24.3 4.5,121.5 -2.3,37.6 -4.4,37.5 -4.4,35.4 -2.2,50.8 2.2,24.3 13.3,13.2 15.4,6.7 26.5,2.2 112.7,6.6 h 35.3 l 110.5,-2.2 35.3,-4.4 48.6,-11.1 31,-13.2 24.3,-19.9 19.8,-26.5 15.5,-33.2 8.8,-33.1 4.4,-37.5 2.3,-37.6 -2.3,-35.3 -8.8,-35.4 -15.5,-33.1 -22,-26.5 -26.5,-15.5 -28.8,-11 -48.6,-8.9"
         style="fill:#01202f;fill-opacity:1;fill-rule:nonzero;stroke:none"
         id="path30" />
      <path
         d="m 8773.6,5226.2 c 42.81,-66.8 85.03,-103.9 126.11,-111.1 41.36,-7.5 84.17,1.2 129,25.5 44.54,24.3 96.32,57.5 155.04,99.8 58.71,42.5 127.55,98.3 206.81,168 78.96,69.4 165.44,149.3 259.16,239.8 -117.43,-62.2 -212.6,-113.7 -285.48,-154.5 -72.89,-40.5 -157.93,-83.6 -255.12,-128.7 -97.19,-45.1 -209.12,-91.4 -335.52,-138.8 z m -581.37,45.7 c 34.99,-17.1 67.97,-29.5 99.21,-37.3 30.94,-7.8 67.96,-8.7 111.06,-2.6 42.81,6.3 74.63,13.3 95.74,21.1 20.82,8.1 32.1,26.6 33.84,56.1 1.74,29.2 11.87,58.1 30.37,86.5 18.8,28 46.86,49.2 84.75,63.3 37.89,14.2 75.5,15.9 112.81,5.2 37.3,-10.7 65.36,-27.2 84.75,-49.1 19.09,-22 70.28,-16.2 153.29,17.9 83.01,33.8 171.52,74.6 265.24,122.6 93.71,48 187.72,99.2 281.43,153.6 93.72,54.1 184.82,109.6 273.62,166.9 88.8,57 184.56,130.5 287.26,220.1 102.9,90 197.5,166.3 284,228.8 86.5,62.8 152.7,105.6 199,128.2 46.3,22.5 87.1,37.3 122.1,43.9 h 15.3 c 24.9,0 39.9,-11.3 45.7,-33.8 1.1,-10.1 1.7,-19.7 1.7,-28.9 0,-20.3 -4.6,-41.7 -13.6,-64.3 -13.6,-33.8 -51.2,-69.1 -112.8,-105.2 -61.6,-36.2 -132.2,-79.3 -211.7,-129.6 -79.5,-50.4 -151,-99.8 -213.5,-148.1 -62.7,-48.6 -122.9,-96.3 -180.5,-143.5 -57.79,-46.8 -113.91,-94.9 -168.58,-144 -54.96,-49.2 -115.41,-107.3 -181.35,-174.4 -66.24,-67.4 -119.47,-122.7 -160.25,-166.1 -40.78,-43.6 -80.98,-81.2 -121.19,-112.8 -40.2,-31.5 -78.96,-62.7 -116.84,-93.1 -37.9,-30.7 -74.63,-60.2 -110.21,-89.1 -35.58,-28.9 -83.89,-61.3 -144.91,-97.5 -47.44,-27.2 -96.03,-40.5 -145.78,-40.7 -15.91,0.2 -31.53,1.7 -47.43,5.2 -67.69,11.2 -126.41,38.4 -175.58,81.2 -49.17,43.1 -78.67,74.9 -88.8,95.8 -10.12,21.1 -25.16,28.9 -44.82,23.7 -19.96,-4.9 -52.94,-13.6 -99.21,-26 -46.28,-12.5 -93.14,-15.4 -140.87,-8.7 -47.43,6.9 -88.79,23.4 -124.37,50 -35.58,26.6 -65.95,57.9 -90.83,94 l 15.34,35.6 c 29.5,13.6 61.61,11.9 96.61,-4.9"
         style="fill:#01202f;fill-opacity:1;fill-rule:nonzero;stroke:none"
         id="path32" />
      <path
         d="m 9697.15,5171.8 c 11.29,30.7 26.61,62.8 46.57,96.6 19.67,33.9 65.08,83 136.23,147.5 71.45,64.5 123.85,122.1 157.65,173 -51.78,-6.9 -86.5,-10.7 -104.13,-11.3 -17.65,-0.6 -28.06,10.1 -31.24,31.5 -3.48,21.4 1.44,37.4 15.04,47.5 13.59,10.1 40.2,17.6 79.83,22.8 39.3,5.2 80.7,11.6 123.5,19.4 75.8,71.5 137.7,128.4 185.7,171.2 48,43.1 99.5,89.4 154.2,139.2 54.9,49.7 106.7,91.1 155.9,124.3 49.1,33.6 91.9,50.7 128.1,51.8 21.4,-28.3 1.4,-69.7 -60.2,-124.7 -61.6,-54.6 -110.5,-100 -146.6,-136.2 -36.2,-36.1 -70.9,-70.8 -104.1,-104.4 -33.6,-33.3 -71.5,-73.2 -114.6,-119.5 55.3,7 138.3,16.5 248.2,29 110.2,12.4 223,24 338.1,34.7 115.4,10.7 231.4,19.9 348.3,28 117.1,7.8 231.6,13 344.2,15.1 112.5,2.3 229.3,2 350.8,-0.9 121.5,-2.6 220.4,-7.8 296.5,-15 76.3,-7.6 137.1,-31 182.2,-70.3 -46.3,-14.8 -88.8,-19.7 -127,-14.5 -38.4,4.9 -79.8,9 -123.8,11.9 -43.9,2.9 -96.9,3.2 -158.5,1.7 -61.6,-1.7 -136.2,-4 -223.5,-6.9 -87.7,-2.9 -181.1,-4.7 -280.6,-5.8 -99.5,-1.2 -200.2,-6.1 -302.6,-14.5 -102.1,-8.4 -199.2,-17.6 -291.5,-27.2 -92,-9.5 -187.7,-18.2 -287.2,-26.3 -99.5,-7.8 -170.1,-13.3 -211.8,-15.9 -41.9,-2.9 -76.3,-6.1 -103.5,-9.5 -27.2,-3.2 -49.5,-9.3 -66.8,-17.7 -17.7,-8.4 -36.2,-21.1 -56.1,-38.2 -19.7,-17 -44.3,-40.5 -73.8,-70.3 -29.2,-30 -63.9,-68.8 -104.1,-116.8 -40.23,-48 -75.81,-89.4 -106.75,-123.8 -30.95,-34.4 -53.52,-66.8 -66.82,-96.6 -13.59,-30.1 -15.33,-56.4 -5.21,-79.5 10.12,-23.5 29.51,-37.4 57.56,-42.6 28.35,-5.2 82.43,6.1 162.82,33.9 80.2,27.7 137.1,52.3 171,73.7 34.1,21.4 59.8,35 77.2,40.8 17.6,5.5 31.2,2 40.8,-11 9.5,-13 -4.4,-35.3 -41.7,-67.1 -37.3,-31.5 -70.5,-55.8 -100,-72.9 -29.3,-16.7 -62.8,-32.7 -100.7,-47.4 -37.9,-14.8 -80.4,-25.5 -128.14,-32.1 -30.37,-4.6 -59.29,-7 -86.19,-7 -17.07,0 -33.55,0.6 -49.18,1.8 -43.09,4.6 -76.65,14.4 -100.94,29.8 -24.29,15.3 -40.49,35.3 -48.31,60.1 -8.96,22.6 -13.59,42.8 -13.59,61.1 0,1.1 0.58,2.9 1.74,4.9 0,19.4 5.78,44.2 17.06,74.6"
         style="fill:#01202f;fill-opacity:1;fill-rule:nonzero;stroke:none"
         id="path34" />
      <path
         d="m 10470,5146.4 c 17.9,-27.2 40.2,-41.1 66.8,-42.3 26.6,-1.1 51.8,6.1 75.5,22 23.7,15.9 51.8,30.7 83.9,44.8 32.1,14.2 63.6,31.9 94,52.7 30.7,20.8 45.7,47.1 45.7,78.7 0,31.8 -11.9,56.4 -35.6,73.7 -23.7,17.7 -33.5,39.9 -29.5,67.1 4.1,26.9 16.5,45.7 37.3,55.8 20.9,10.2 55.6,16 104.2,17.1 50.9,-10.4 81.8,-35.6 93.1,-76.4 11.3,-40.7 10.4,-78.6 -2.3,-113.6 -13,-35 2.9,-66.6 48.3,-94.9 45.1,-28.1 85.3,-37.6 121.2,-27.8 35.6,9.6 55.5,-1.4 60.1,-33.2 -5.7,-33.9 -15,-54.1 -28,-61.1 -13,-6.6 -39.3,-13 -79,-18.5 -39.3,-5.8 -86.7,6.4 -142.3,36.5 -55.2,29.8 -94.9,35.8 -118.6,17.6 -23.7,-17.9 -59.3,-41.3 -106.7,-70.3 -47.4,-28.6 -94,-51.7 -139.7,-68.5 -46,-17.1 -98.1,-25.5 -156.8,-25.5 -54.4,18.2 -92.8,46 -115.4,83.9 -22.5,37.9 -33.8,79.6 -33.8,124.7 5.5,31.5 28.9,66.2 70.3,104.1 41.3,37.9 80.7,69.4 118.6,94.9 37.8,25.4 76.3,44.2 115.4,56.1 38.7,11.8 66.5,10.1 83,-5.2 16.2,-15.3 26.9,-33.9 32.1,-55.8 5.2,-22.3 2.9,-40 -6.7,-53.6 -9.8,-13.6 -23.7,-22.5 -42.5,-27.1 -18.5,-4.4 -44.3,-10.5 -76.9,-17.7 -33,-7.5 -68.3,-25.4 -106.2,-54.4 -37.9,-28.6 -47.7,-56.7 -29.5,-83.8"
         style="fill:#01202f;fill-opacity:1;fill-rule:nonzero;stroke:none"
         id="path36" />
      <path
         d="m 11094.5,5155 c 74.6,41.7 151.8,105.3 231.4,190.6 79.8,85.4 141.4,136 185.7,152.5 43.9,16.5 92.5,24.6 145.7,24.6 20.3,-1.2 37.9,-5.5 52.4,-13.6 14.8,-7.8 23.7,-21.2 27.2,-39.9 3.5,-18.6 2.9,-39.1 -1.7,-61.7 -4.4,-22.8 -18,-50 -40.5,-82.4 -22.9,-32.1 -49.5,-59.3 -80.7,-81.3 -31,-22 -52.4,-41.9 -64.3,-60.1 -11.8,-18 -12.7,-35.9 -2.6,-53.3 10.2,-17.6 49.5,-19.3 117.8,-5.2 68.2,14.2 118.9,27.2 151.5,39.1 33,11.8 68,26.3 105.3,43.1 l 20.3,-76.1 c -82.5,-38.5 -155.9,-71.4 -220.4,-98.3 -64.3,-27.2 -132.2,-45.4 -203.4,-54.4 -47.4,0 -83.6,2 -108.4,6.1 -24.9,3.7 -47.8,14.1 -68.6,31.2 -20.8,17.1 -33.8,37.9 -39,62.8 -5,24.8 -0.9,49.1 12.7,72.9 13.6,23.7 33.8,46.2 61,67.6 27.2,21.4 55.8,38.8 86.5,51.8 30.4,13 56.7,31.3 78.7,55 22.2,23.7 27.5,41.9 16.2,54.4 -11.3,12.4 -27.8,16.1 -49.2,10.9 -21.4,-5.2 -72.3,-47.7 -152.4,-127.8 -80.4,-80.4 -160.6,-137.4 -240.7,-171.2 l -20.5,62.7"
         style="fill:#01202f;fill-opacity:1;fill-rule:nonzero;stroke:none"
         id="path38" />
      <path
         d="m 11991.1,5256.6 c 69.2,22.5 115.2,43.9 138.3,64.5 23.1,20.2 33,39 29.5,55.8 -3.2,17 -22.6,16.5 -57.6,-1.8 -35,-17.9 -59,-36.4 -72,-54.9 -13,-18.8 -25.7,-39.9 -38.2,-63.6 z m -148.9,-112 c 0,59 7.2,104.1 22,135.7 14.7,31.8 38.7,64.5 72,98.3 33.2,33.9 66.5,63.4 100.1,88.2 33.2,24.9 67.4,41.7 102.4,50.7 l 39,1.7 c 35,-1.2 65.4,-10.7 91.4,-28.6 26,-18.3 37,-50.1 33.3,-95.8 -4.1,-46 -26.6,-85.3 -68,-118.9 -41.1,-33.2 -87.9,-57.2 -139.7,-72 -52.1,-14.4 -80.1,-27.8 -83.9,-39.6 -4,-11.9 4.3,-24.9 25.5,-39.1 20.8,-14.1 67.6,-23.1 140.5,-27.1 72.9,-3.8 132.5,0 178.8,11.8 46.3,11.9 83.9,24.6 112.8,38.2 28.6,13.6 51.2,22.5 67.7,27.2 16.5,4.6 29.8,-4.1 39.9,-25.5 -29.5,-41.9 -61.6,-72.6 -96.6,-92.2 -35,-20 -79,-37.6 -131.3,-53.6 -52.7,-15.9 -116.9,-25.4 -192.4,-28.9 h -45.7 c -82.7,8.1 -138.2,19.1 -167.2,33.3 -28.6,14.2 -50.9,30.6 -66.8,50 -15.9,19.1 -27.2,48 -33.8,86.2"
         style="fill:#01202f;fill-opacity:1;fill-rule:nonzero;stroke:none"
         id="path40" />
      <path
         d="m 12703,5044.8 c 26,31.6 47.4,54.1 63.6,67.7 16.5,13.6 37.6,20.3 63.6,20.3 26.1,0 47.5,-7.3 64.5,-22 16.8,-12.5 25.2,-31 25.2,-55.8 v -8.4 c -2,-28.4 -11.3,-46.9 -26.9,-55.3 -15.9,-8.4 -31.5,-16.2 -46.6,-22.8 -15.3,-6.7 -30.3,-18.5 -45.1,-35.6 -10.1,-12.4 -23.1,-18.5 -38.8,-18.5 -8.1,0 -16.4,0.8 -25.4,3.2 -28.4,8.1 -46.6,22.5 -54.4,44.2 -2.3,5.5 -3.5,11.9 -3.5,18.5 0,18.2 8.1,39.7 23.8,64.5"
         style="fill:#01202f;fill-opacity:1;fill-rule:nonzero;stroke:none"
         id="path42" />
    </g>
  </g>
</svg>
